<svg xmlns="http://www.w3.org/2000/svg" xmlns:xlink="http://www.w3.org/1999/xlink" viewBox="0 0 311.54 175.67"><defs><style>.cls-1{fill:url(#linear-gradient);}.cls-2{fill:#1b67a7;}.cls-3{fill:#2aa3e1;}.cls-4{fill:url(#linear-gradient-2);}.cls-5{fill:#a288bb;}.cls-6{fill:url(#linear-gradient-3);}.cls-7{fill:url(#linear-gradient-4);}.cls-8{fill:#1e436f;}.cls-9{fill:url(#linear-gradient-5);}</style><linearGradient id="linear-gradient" x1="177.29" y1="11.36" x2="278.66" y2="116.91" gradientUnits="userSpaceOnUse"><stop offset="0" stop-color="#4bb7ee"/><stop offset="0.4" stop-color="#4ab5ec"/><stop offset="0.55" stop-color="#47afe5"/><stop offset="0.66" stop-color="#42a5d9"/><stop offset="0.74" stop-color="#3b95c8"/><stop offset="0.82" stop-color="#3182b2"/><stop offset="0.89" stop-color="#256a96"/><stop offset="0.95" stop-color="#174d76"/><stop offset="1" stop-color="#082e53"/></linearGradient><linearGradient id="linear-gradient-2" x1="-3611.34" y1="571.59" x2="-3632.24" y2="558.18" gradientTransform="matrix(-1, 0, 0, 1, -3327.09, -403.22)" gradientUnits="userSpaceOnUse"><stop offset="0" stop-color="#a288bb"/><stop offset="0.21" stop-color="#9f85b8"/><stop offset="0.37" stop-color="#957bae"/><stop offset="0.52" stop-color="#856a9d"/><stop offset="0.65" stop-color="#6e5386"/><stop offset="0.78" stop-color="#513568"/><stop offset="0.84" stop-color="#432659"/><stop offset="0.87" stop-color="#3a6253"/></linearGradient><linearGradient id="linear-gradient-3" x1="1484.72" y1="571.59" x2="1463.81" y2="558.18" gradientTransform="translate(-1441.13 -403.22)" xlink:href="#linear-gradient-2"/><linearGradient id="linear-gradient-4" x1="241.14" y1="183.75" x2="294.03" y2="126.16" gradientUnits="userSpaceOnUse"><stop offset="0.16" stop-color="#432659"/><stop offset="0.22" stop-color="#513568"/><stop offset="0.35" stop-color="#6e5386"/><stop offset="0.48" stop-color="#856a9d"/><stop offset="0.63" stop-color="#957bae"/><stop offset="0.79" stop-color="#9f85b8"/><stop offset="1" stop-color="#a288bb"/></linearGradient><linearGradient id="linear-gradient-5" x1="-1227.97" y1="-2794.49" x2="-1274.36" y2="-2824.25" gradientTransform="translate(-2788.67 1094.24) rotate(93.85)" gradientUnits="userSpaceOnUse"><stop offset="0" stop-color="#a288bb"/><stop offset="0.21" stop-color="#9f85b8"/><stop offset="0.37" stop-color="#957bae"/><stop offset="0.52" stop-color="#856a9d"/><stop offset="0.65" stop-color="#6e5386"/><stop offset="0.78" stop-color="#513568"/><stop offset="0.84" stop-color="#432659"/></linearGradient></defs><title>logo</title><g id="Capa_2" data-name="Capa 2"><g id="Capa_2-2" data-name="Capa 2"><path class="cls-1" d="M259.68,66V89.93H271a35.1,35.1,0,0,1-8.77,6.95A39.23,39.23,0,0,1,242,102.47c-21.19,0-38.38-16.59-38.38-37.06a35.72,35.72,0,0,1,2.2-12.36,11.18,11.18,0,0,1,1.07-3h0c-6.61,10-15.19,23.75-22.61,35.84,10,23.74,31.38,39.8,60.43,39.8,26.51,0,56.15-20.4,56.15-47.7V66Z"/><path class="cls-2" d="M275.25,43.16h24.51C291.8,18.82,268.7.31,242.66.31a58.27,58.27,0,0,0-46.92,24c-10,14.09-32.15,51.33-41.25,66.81l-37-55.27L102.15,55.91l36.42,54.38c2.13,3.58,7.54,10.87,16.18,10.87h0c9,0,14.55-8,16.44-11.3.14-.25,14.75-24.94,14.75-24.94s14.88-25.13,24.26-39.46a37.64,37.64,0,0,1,4.73-6.92l.27-.36a26.31,26.31,0,0,1,6.05-5.45,37.66,37.66,0,0,1,54,10.43Z"/><path class="cls-3" d="M117.46,35.85,74.83,91.68,28.4,2.16H0l58.19,108,.26.42c4.79,7,10.18,10.6,16,10.6,2,0,8.09,0,15.55-10l41.51-54.37Z"/><path class="cls-4" d="M311.54,155l-6.35-4.85L288,161.66c-1.14.68-3.45,2.39-3.45,5.13h0a5.89,5.89,0,0,0,2.59,4.55l10.52-7Z"/><path class="cls-5" d="M311.54,155l-12.64-9.65-11.46-8.71c-1.93,1.44-2.92,3-2.92,4.74,0,.63,0,2.56,3.16,4.92l17.22,13.15Z"/><path class="cls-6" d="M16.29,155l6.35-4.85,17.22,11.53c1.14.68,3.45,2.39,3.45,5.13h0a5.86,5.86,0,0,1-2.59,4.55l-10.51-7Z"/><path class="cls-5" d="M16.29,155l12.64-9.65,11.47-8.71c1.92,1.44,2.91,3,2.91,4.74,0,.63,0,2.56-3.16,4.92L22.93,159.43Z"/><path class="cls-7" d="M253.27,175.66l25.06-46.25h8.44l-25.5,46.26Z"/><path class="cls-8" d="M79.61,143.63,72.5,165.54H68.78l-4-13.53-4,13.53H57l-7.12-21.91h4.49L59,157.79l4-14.16h3.51l4,14.19,4.68-14.19Z"/><path class="cls-8" d="M96.4,165.54H81.94V143.66H96.4v3.5H86.1v5.23H96.26v3.43H86.1v6H96.4Z"/><path class="cls-8" d="M115.08,157.75a5.94,5.94,0,0,0-.6-1.42,6.07,6.07,0,0,0-1-1.23,5.09,5.09,0,0,0-1.28-.9,5.91,5.91,0,0,0,1.46-1.94,5.52,5.52,0,0,0,.54-2.38,6.65,6.65,0,0,0-.5-2.62,5.54,5.54,0,0,0-1.42-2,6,6,0,0,0-2.12-1.23,7.78,7.78,0,0,0-2.64-.43H99.68v21.91l8.84,0a7.35,7.35,0,0,0,2.56-.46,7,7,0,0,0,2.15-1.3,6.31,6.31,0,0,0,1.49-2,5.68,5.68,0,0,0,.56-2.53A5.62,5.62,0,0,0,115.08,157.75Zm-11.16-10.89h2.5a4.44,4.44,0,0,1,1.36.2,3.54,3.54,0,0,1,1.17.57,3,3,0,0,1,.8,1,2.8,2.8,0,0,1,.31,1.37,2.7,2.7,0,0,1-.31,1.35,2.64,2.64,0,0,1-.8.92,3.68,3.68,0,0,1-1.17.53,6.1,6.1,0,0,1-1.36.16h-1.27l-1.23,0Zm6.62,13.52a2.62,2.62,0,0,1-.86.92,3.5,3.5,0,0,1-1.21.54,5.91,5.91,0,0,1-1.37.17h-3.18V156h1.84c.6,0,1.21,0,1.83,0a3.72,3.72,0,0,1,1.27.22,3.3,3.3,0,0,1,1,.62,2.77,2.77,0,0,1,.71,1,2.94,2.94,0,0,1,.27,1.26A2.66,2.66,0,0,1,110.54,160.38Z"/><path class="cls-8" d="M129.88,154.2v3.62h4.48v2.1a8.42,8.42,0,0,1-2.35,1.45,7,7,0,0,1-2.78.55,7.4,7.4,0,0,1-2.93-.58,7.56,7.56,0,0,1-4-3.92,7,7,0,0,1-.58-2.86,6.89,6.89,0,0,1,.58-2.83,7.45,7.45,0,0,1,1.62-2.33,7.73,7.73,0,0,1,2.38-1.58,7.57,7.57,0,0,1,2.93-.57,7.72,7.72,0,0,1,3.41.73,7.36,7.36,0,0,1,2.77,2.39l2.87-2.93a12.23,12.23,0,0,0-3.93-3.07,11.44,11.44,0,0,0-5.13-1.15,11.78,11.78,0,0,0-4.57.89,12.35,12.35,0,0,0-3.74,2.42,11.3,11.3,0,0,0-2.52,3.61,10.73,10.73,0,0,0-.91,4.42,10.9,10.9,0,0,0,.92,4.49,11.48,11.48,0,0,0,6.25,6,12,12,0,0,0,4.57.88,11.6,11.6,0,0,0,2.47-.27,11.24,11.24,0,0,0,2.44-.8,12.73,12.73,0,0,0,2.29-1.39,11.78,11.78,0,0,0,2-2V154.2Z"/><path class="cls-8" d="M158.18,165.54h-4.67l-1.56-5a7.93,7.93,0,0,0-.61-1.51,4.88,4.88,0,0,0-.89-1.18,3.72,3.72,0,0,0-1.24-.77,5,5,0,0,0-1.71-.27h-1.59v8.71h-4.18V143.66l8.63,0a7,7,0,0,1,2.6.48,6.68,6.68,0,0,1,2.08,1.33,6.33,6.33,0,0,1,1.36,2,6.25,6.25,0,0,1,.49,2.49,6,6,0,0,1-.3,1.87,6.71,6.71,0,0,1-.84,1.67,6.59,6.59,0,0,1-1.29,1.35,5.5,5.5,0,0,1-1.65.89,4.13,4.13,0,0,1,1.69,1.11,5.23,5.23,0,0,1,1,1.73c.13.32.25.62.36.94s.22.63.33,1l.39,1.09c.13.4.28.83.45,1.3s.38,1.12.56,1.54A7.25,7.25,0,0,0,158.18,165.54Zm-5.53-15.3a3.37,3.37,0,0,0-.29-1.4,3.34,3.34,0,0,0-.78-1.1,3.44,3.44,0,0,0-1.16-.72,3.84,3.84,0,0,0-1.44-.27h-3.07v6.82H149a4.53,4.53,0,0,0,1.44-.23,3.33,3.33,0,0,0,1.16-.67,3.13,3.13,0,0,0,.78-1A3.31,3.31,0,0,0,152.65,150.24Z"/><path class="cls-8" d="M182.9,165.54h-4.66l-2-4.38H165.6l-2,4.38h-4.66l10.35-21.91h3.31Zm-8.35-7.91-3.65-7.89-3.69,7.89Z"/><path class="cls-8" d="M199.54,147.31h-10.3v5.08H199.4v3.46H189.24v9.69h-4.15V143.66h14.45Z"/><path class="cls-8" d="M206.52,165.54h-4.24V143.66h4.24Z"/><path class="cls-8" d="M230.64,161.59a12.27,12.27,0,0,1-4,3.18,11.32,11.32,0,0,1-5.16,1.18,11.85,11.85,0,0,1-4.57-.89,12.09,12.09,0,0,1-3.71-2.42,11.28,11.28,0,0,1-2.49-3.6,11.22,11.22,0,0,1,0-8.9,11.46,11.46,0,0,1,6.2-6,12,12,0,0,1,4.57-.88,11.19,11.19,0,0,1,5.16,1.18,12.05,12.05,0,0,1,3.91,3.07l-2.93,3a7.67,7.67,0,0,0-2.62-2.34,7.16,7.16,0,0,0-3.52-.89,7,7,0,0,0-2.88.59,7.71,7.71,0,0,0-2.37,1.59,7.43,7.43,0,0,0-1.61,2.32,7,7,0,0,0-.58,2.84,6.85,6.85,0,0,0,.58,2.8,7.59,7.59,0,0,0,1.61,2.33,7.87,7.87,0,0,0,2.37,1.58,7.35,7.35,0,0,0,6.47-.32,8.16,8.16,0,0,0,2.6-2.43Z"/><path class="cls-8" d="M254.94,165.54h-4.65l-2-4.38H237.64l-2,4.38h-4.65l10.34-21.91h3.32Zm-8.34-7.91L243,149.74l-3.7,7.89Z"/><path class="cls-9" d="M118,0l6.21,9.37L91.49,51.64C90.43,53.17,87.81,56.25,84,56h0a8.22,8.22,0,0,1-6.13-4.05l25.75-33.29Z"/><path class="cls-5" d="M118,0l12.35,18.65L153,52.42c-2.2,2.56-4.52,3.8-6.92,3.64-.89-.07-3.59-.25-6.61-4.9L111.12,8.9Z"/></g></g></svg>